<svg xmlns="http://www.w3.org/2000/svg" aria-hidden="true" style="position:absolute;width:0;height:0;overflow:hidden">
  <defs>
    <symbol id="icon-close" viewBox="0 0 32 32">
      <path stroke-linecap="round" stroke-linejoin="round" stroke-width="1.28" d="M7.36 7.36 16 16m0 0-8.64 8.64M16 16l8.64 8.64M16 16l8.64-8.64"/>
    </symbol>
    <symbol id="icon-delete" viewBox="0 0 32 32">
      <path stroke-linecap="round" stroke-linejoin="round" stroke-width="1.333" d="M16 21.846v-8.769M6.5 9.423h2.192m16.808 0h-2.192m-3.654 0h-7.308m7.308 0V7.961c0-.807-.654-1.462-1.462-1.462h-4.385c-.807 0-1.462.654-1.462 1.462v1.462m7.309 0h3.654m-10.962 0H8.692m14.616 0v13.154a2.923 2.923 0 0 1-2.923 2.923h-8.769a2.923 2.923 0 0 1-2.923-2.923V9.423"/>
    </symbol>
    <symbol id="icon-exit" viewBox="0 0 32 32">
      <path stroke-linecap="round" stroke-linejoin="round" stroke-width="1.333" d="M13.077 6.5H9.423A2.923 2.923 0 0 0 6.5 9.423v13.154A2.923 2.923 0 0 0 9.423 25.5h3.654M11.5 16h14.615m0 0-4.385 4.385M26.115 16l-4.385-4.385"/>
    </symbol>
    <symbol id="icon-left-pagin-arrow" viewBox="0 0 32 32">
      <path stroke-linecap="round" stroke-linejoin="round" stroke-width="1.333" d="m25.997 16-19.996.004m0 0 5.384 5.386m-5.384-5.386 5.384-5.386"/>
    </symbol>
    <symbol id="icon-right-pagin-arrow" viewBox="0 0 32 32">
      <path stroke-linecap="round" stroke-linejoin="round" stroke-width="1.333" d="M6 16.004 25.996 16m0 0-5.384-5.386M25.996 16l-5.384 5.386"/>
    </symbol>
    <symbol id="icon-edit" viewBox="0 0 32 32">
      <path d="M27.6 1.28c-0.861 0.002-1.639 0.354-2.2 0.92l-0.52 0.52 4.4 4.4 0.52-0.52c0.563-0.563 0.912-1.341 0.912-2.2s-0.349-1.637-0.912-2.2l-0-0c-0.562-0.566-1.34-0.918-2.2-0.92h-0zM23.9 3.86c-0.151 0.023-0.283 0.095-0.38 0.2l-0 0-20.76 20.78c-0.081 0.075-0.143 0.169-0.178 0.276l-0.001 0.005-1.28 4.8c-0.013 0.048-0.021 0.104-0.021 0.161 0 0.177 0.072 0.336 0.188 0.452l0 0c0.16 0.16 0.392 0.225 0.612 0.168l4.8-1.28c0.111-0.037 0.206-0.099 0.28-0.18l0-0 20.78-20.76c0.112-0.116 0.18-0.273 0.18-0.447 0-0.356-0.288-0.644-0.644-0.644-0.169 0-0.322 0.065-0.437 0.171l0-0-20.66 20.66-2.6-2.601 20.66-20.659c0.121-0.117 0.196-0.28 0.196-0.461 0-0.353-0.287-0.64-0.64-0.64-0.013 0-0.025 0-0.038 0.001l0.002-0h-0.060z"></path>
    </symbol>
    <symbol id="icon-check" viewBox="0 0 32 32">
      <path stroke-linejoin="round" stroke-linecap="round" stroke-miterlimit="4" stroke-width="3.5556" d="M26.667 8l-14.667 14.667-6.667-6.667"></path>
    </symbol>
    <symbol id="icon-photo" viewBox="0 0 32 32">
      <path stroke-linejoin="miter" stroke-linecap="butt" stroke-miterlimit="4" stroke-width="1.5769" d="M21.762 18.305c0 3.182-2.58 5.762-5.762 5.762s-5.762-2.58-5.762-5.762c0-3.182 2.58-5.762 5.762-5.762s5.762 2.58 5.762 5.762z"></path>
      <path stroke-linejoin="miter" stroke-linecap="butt" stroke-miterlimit="4" stroke-width="1.5769" d="M1.019 26.25v-14.043c0-2.36 1.913-4.273 4.273-4.273 1.619 0 3.098-0.914 3.822-2.362l0.968-1.937c0.801-1.603 2.439-2.615 4.231-2.615h3.371c1.792 0 3.43 1.012 4.231 2.615l0.968 1.937c0.724 1.448 2.203 2.362 3.822 2.362 2.36 0 4.273 1.913 4.273 4.273v14.043c0 2.613-2.118 4.731-4.731 4.731h-20.5c-2.613 0-4.731-2.118-4.731-4.731z"></path>
    </symbol>
  </defs>
</svg>